<mxfile host="app.diagrams.net" agent="Mozilla/5.0 (Windows NT 10.0; Win64; x64) AppleWebKit/537.36 (KHTML, like Gecko) Chrome/138.0.0.0 Safari/537.36" version="28.0.6">
  <diagram name="Page-1" id="XMn-dNzd_WP48Jauk2oA">
    <mxGraphModel grid="1" page="0" gridSize="10" guides="1" tooltips="1" connect="1" arrows="1" fold="1" pageScale="1" pageWidth="827" pageHeight="1169" background="none" math="0" shadow="0">
      <root>
        <mxCell id="0" />
        <mxCell id="1" parent="0" />
        <mxCell id="apJjrUFY_y8iBQesmdCD-7" value="" style="rounded=0;whiteSpace=wrap;html=1;fillColor=#ffe6cc;strokeColor=light-dark(#e4d2a5, #996500);" vertex="1" parent="1">
          <mxGeometry x="170" y="200" width="110" height="410" as="geometry" />
        </mxCell>
        <mxCell id="apJjrUFY_y8iBQesmdCD-9" value="" style="rounded=0;whiteSpace=wrap;html=1;fillColor=#fff2cc;strokeColor=#d6b656;" vertex="1" parent="1">
          <mxGeometry x="450" y="200" width="110" height="410" as="geometry" />
        </mxCell>
        <mxCell id="apJjrUFY_y8iBQesmdCD-10" value="" style="rounded=0;whiteSpace=wrap;html=1;fillColor=#f5f5f5;fontColor=#333333;strokeColor=#666666;" vertex="1" parent="1">
          <mxGeometry x="312.5" y="200" width="110" height="410" as="geometry" />
        </mxCell>
        <mxCell id="apJjrUFY_y8iBQesmdCD-13" value="BRONZE LAYER" style="rounded=1;whiteSpace=wrap;html=1;fillColor=#ffe6cc;strokeColor=#d79b00;" vertex="1" parent="1">
          <mxGeometry x="172.5" y="160" width="105" height="40" as="geometry" />
        </mxCell>
        <mxCell id="apJjrUFY_y8iBQesmdCD-14" value="SILVER LAYER" style="rounded=1;whiteSpace=wrap;html=1;fillColor=#f5f5f5;fontColor=#333333;strokeColor=#666666;" vertex="1" parent="1">
          <mxGeometry x="312.5" y="160" width="105" height="40" as="geometry" />
        </mxCell>
        <mxCell id="apJjrUFY_y8iBQesmdCD-15" value="GOLD LAYER" style="rounded=1;whiteSpace=wrap;html=1;fillColor=#fff2cc;strokeColor=#d6b656;" vertex="1" parent="1">
          <mxGeometry x="452.5" y="160" width="105" height="40" as="geometry" />
        </mxCell>
        <mxCell id="apJjrUFY_y8iBQesmdCD-16" value="" style="rounded=0;whiteSpace=wrap;html=1;fillColor=none;" vertex="1" parent="1">
          <mxGeometry x="-60" y="200" width="120" height="410" as="geometry" />
        </mxCell>
        <mxCell id="apJjrUFY_y8iBQesmdCD-17" value="" style="rounded=0;whiteSpace=wrap;html=1;fillColor=none;" vertex="1" parent="1">
          <mxGeometry x="680" y="200" width="120" height="410" as="geometry" />
        </mxCell>
        <mxCell id="apJjrUFY_y8iBQesmdCD-19" value="CONSUME" style="rounded=1;whiteSpace=wrap;html=1;fillColor=none;" vertex="1" parent="1">
          <mxGeometry x="687.5" y="160" width="105" height="40" as="geometry" />
        </mxCell>
        <mxCell id="apJjrUFY_y8iBQesmdCD-20" value="" style="rounded=1;whiteSpace=wrap;html=1;fillColor=none;" vertex="1" parent="1">
          <mxGeometry x="-52.5" y="160" width="105" height="40" as="geometry" />
        </mxCell>
        <mxCell id="apJjrUFY_y8iBQesmdCD-21" value="SOURCES" style="text;html=1;align=center;verticalAlign=middle;whiteSpace=wrap;rounded=0;" vertex="1" parent="1">
          <mxGeometry x="-30" y="165" width="60" height="30" as="geometry" />
        </mxCell>
        <mxCell id="apJjrUFY_y8iBQesmdCD-22" value="" style="rounded=0;whiteSpace=wrap;html=1;fillColor=none;" vertex="1" parent="1">
          <mxGeometry x="205" y="110" width="320" height="30" as="geometry" />
        </mxCell>
        <mxCell id="apJjrUFY_y8iBQesmdCD-23" value="DATA WAREHOUSE" style="text;html=1;align=center;verticalAlign=middle;whiteSpace=wrap;rounded=0;fontSize=16;" vertex="1" parent="1">
          <mxGeometry x="270" y="120" width="170" height="10" as="geometry" />
        </mxCell>
        <mxCell id="apJjrUFY_y8iBQesmdCD-25" value="" style="shape=image;html=1;verticalAlign=top;verticalLabelPosition=bottom;labelBackgroundColor=#ffffff;imageAspect=0;aspect=fixed;image=https://cdn3.iconfinder.com/data/icons/cad-database-presentation-spreadsheet-vector-fil-2/512/19-128.png" vertex="1" parent="1">
          <mxGeometry x="-25" y="210" width="40" height="40" as="geometry" />
        </mxCell>
        <mxCell id="apJjrUFY_y8iBQesmdCD-26" value="" style="image;aspect=fixed;html=1;points=[];align=center;fontSize=12;image=img/lib/azure2/general/Folder_Blank.svg;" vertex="1" parent="1">
          <mxGeometry x="-21.96" y="289.75" width="36.96" height="30" as="geometry" />
        </mxCell>
        <mxCell id="apJjrUFY_y8iBQesmdCD-27" value="CRM Source&lt;div&gt;&lt;br&gt;&lt;/div&gt;" style="text;html=1;align=center;verticalAlign=middle;whiteSpace=wrap;rounded=0;" vertex="1" parent="1">
          <mxGeometry x="-35" y="260" width="60" height="30" as="geometry" />
        </mxCell>
        <mxCell id="apJjrUFY_y8iBQesmdCD-28" value="ERP&lt;div&gt;&amp;nbsp;Source&lt;div&gt;&lt;br&gt;&lt;/div&gt;&lt;/div&gt;" style="text;html=1;align=center;verticalAlign=middle;whiteSpace=wrap;rounded=0;" vertex="1" parent="1">
          <mxGeometry x="-33.480000000000004" y="330" width="60" height="20" as="geometry" />
        </mxCell>
        <mxCell id="apJjrUFY_y8iBQesmdCD-29" value="" style="html=1;verticalLabelPosition=bottom;align=center;labelBackgroundColor=#ffffff;verticalAlign=top;strokeWidth=2;strokeColor=#0080F0;shadow=0;dashed=0;shape=mxgraph.ios7.icons.data;" vertex="1" parent="1">
          <mxGeometry x="190" y="270" width="70" height="60" as="geometry" />
        </mxCell>
        <mxCell id="apJjrUFY_y8iBQesmdCD-82" value="" style="edgeStyle=orthogonalEdgeStyle;rounded=0;orthogonalLoop=1;jettySize=auto;html=1;" edge="1" parent="1" source="apJjrUFY_y8iBQesmdCD-32" target="apJjrUFY_y8iBQesmdCD-29">
          <mxGeometry relative="1" as="geometry" />
        </mxCell>
        <mxCell id="apJjrUFY_y8iBQesmdCD-32" value="" style="html=1;verticalLabelPosition=bottom;align=center;labelBackgroundColor=#ffffff;verticalAlign=top;strokeWidth=2;strokeColor=#0080F0;shadow=0;dashed=0;shape=mxgraph.ios7.icons.data;" vertex="1" parent="1">
          <mxGeometry x="330" y="270" width="70" height="60" as="geometry" />
        </mxCell>
        <mxCell id="apJjrUFY_y8iBQesmdCD-33" value="" style="html=1;verticalLabelPosition=bottom;align=center;labelBackgroundColor=#ffffff;verticalAlign=top;strokeWidth=2;strokeColor=#0080F0;shadow=0;dashed=0;shape=mxgraph.ios7.icons.data;" vertex="1" parent="1">
          <mxGeometry x="480" y="270" width="70" height="60" as="geometry" />
        </mxCell>
        <mxCell id="apJjrUFY_y8iBQesmdCD-35" value="" style="shape=flexArrow;endArrow=classic;html=1;rounded=0;width=12;endSize=7.93;fillColor=#dae8fc;strokeColor=#6c8ebf;" edge="1" parent="1">
          <mxGeometry width="50" height="50" relative="1" as="geometry">
            <mxPoint x="67.5" y="299" as="sourcePoint" />
            <mxPoint x="137.5" y="299" as="targetPoint" />
          </mxGeometry>
        </mxCell>
        <mxCell id="apJjrUFY_y8iBQesmdCD-41" value="" style="shape=flexArrow;endArrow=classic;html=1;rounded=0;width=12;endSize=7.93;fillColor=#dae8fc;strokeColor=#6c8ebf;" edge="1" parent="1">
          <mxGeometry width="50" height="50" relative="1" as="geometry">
            <mxPoint x="270" y="300" as="sourcePoint" />
            <mxPoint x="320" y="300" as="targetPoint" />
          </mxGeometry>
        </mxCell>
        <mxCell id="apJjrUFY_y8iBQesmdCD-45" value="Raw Data" style="text;html=1;align=center;verticalAlign=middle;whiteSpace=wrap;rounded=0;" vertex="1" parent="1">
          <mxGeometry x="190" y="340" width="60" height="10" as="geometry" />
        </mxCell>
        <mxCell id="apJjrUFY_y8iBQesmdCD-46" value="Cleaned, Standardised&lt;div&gt;&amp;nbsp;Data&lt;/div&gt;" style="text;html=1;align=center;verticalAlign=middle;whiteSpace=wrap;rounded=0;" vertex="1" parent="1">
          <mxGeometry x="335" y="345" width="60" height="20" as="geometry" />
        </mxCell>
        <mxCell id="apJjrUFY_y8iBQesmdCD-47" value="Business Ready Data" style="text;html=1;align=center;verticalAlign=middle;whiteSpace=wrap;rounded=0;" vertex="1" parent="1">
          <mxGeometry x="480" y="340" width="60" height="30" as="geometry" />
        </mxCell>
        <mxCell id="apJjrUFY_y8iBQesmdCD-53" value="" style="shape=flexArrow;endArrow=classic;html=1;rounded=0;width=16;endSize=8.17;fillColor=#dae8fc;strokeColor=#6c8ebf;" edge="1" parent="1">
          <mxGeometry width="50" height="50" relative="1" as="geometry">
            <mxPoint x="610" y="300" as="sourcePoint" />
            <mxPoint x="680" y="300" as="targetPoint" />
          </mxGeometry>
        </mxCell>
        <mxCell id="apJjrUFY_y8iBQesmdCD-55" value="" style="verticalLabelPosition=bottom;sketch=0;aspect=fixed;html=1;verticalAlign=top;strokeColor=none;align=center;outlineConnect=0;shape=mxgraph.citrix.reporting;" vertex="1" parent="1">
          <mxGeometry x="724" y="221" width="43.67" height="49" as="geometry" />
        </mxCell>
        <mxCell id="apJjrUFY_y8iBQesmdCD-56" value="" style="sketch=0;outlineConnect=0;fontColor=#232F3E;gradientColor=none;fillColor=#8C4FFF;strokeColor=none;dashed=0;verticalLabelPosition=bottom;verticalAlign=top;align=center;html=1;fontSize=12;fontStyle=0;aspect=fixed;pointerEvents=1;shape=mxgraph.aws4.redshift_query_editor_v20_light;" vertex="1" parent="1">
          <mxGeometry x="724" y="319.75" width="40.25" height="40.25" as="geometry" />
        </mxCell>
        <mxCell id="apJjrUFY_y8iBQesmdCD-57" value="" style="image;html=1;image=img/lib/clip_art/computers/Network_128x128.png" vertex="1" parent="1">
          <mxGeometry x="700" y="416" width="80" height="44" as="geometry" />
        </mxCell>
        <mxCell id="apJjrUFY_y8iBQesmdCD-59" value="Tableau or PowerBI" style="text;html=1;align=center;verticalAlign=middle;whiteSpace=wrap;rounded=0;" vertex="1" parent="1">
          <mxGeometry x="710" y="270" width="60" height="30" as="geometry" />
        </mxCell>
        <mxCell id="apJjrUFY_y8iBQesmdCD-60" value="AD-hoc SQL Queries" style="text;html=1;align=center;verticalAlign=middle;whiteSpace=wrap;rounded=0;" vertex="1" parent="1">
          <mxGeometry x="710" y="365" width="60" height="30" as="geometry" />
        </mxCell>
        <mxCell id="apJjrUFY_y8iBQesmdCD-61" value="Machine Learning" style="text;html=1;align=center;verticalAlign=middle;whiteSpace=wrap;rounded=0;" vertex="1" parent="1">
          <mxGeometry x="707.96" y="460" width="72.04" height="30" as="geometry" />
        </mxCell>
        <mxCell id="apJjrUFY_y8iBQesmdCD-67" value="Object Type: CSV and ERP Files&lt;div&gt;Interface:-Files in Folder&lt;/div&gt;" style="text;html=1;align=center;verticalAlign=middle;whiteSpace=wrap;rounded=0;" vertex="1" parent="1">
          <mxGeometry x="-52.5" y="360" width="100" height="130" as="geometry" />
        </mxCell>
        <mxCell id="apJjrUFY_y8iBQesmdCD-78" value="&lt;b&gt;Object type&lt;/b&gt;:-Tables&lt;div&gt;&lt;br&gt;&lt;div style=&quot;text-align: left;&quot;&gt;&lt;span style=&quot;background-color: transparent; color: light-dark(rgb(0, 0, 0), rgb(255, 255, 255));&quot;&gt;&lt;b&gt;LOAD:&lt;/b&gt;&lt;/span&gt;&lt;/div&gt;&lt;div&gt;&lt;ul&gt;&lt;li style=&quot;text-align: left;&quot;&gt;Batch Processing&lt;/li&gt;&lt;li style=&quot;text-align: left;&quot;&gt;Full Load&lt;/li&gt;&lt;li style=&quot;text-align: left;&quot;&gt;Truncate &amp;amp; Insert&lt;/li&gt;&lt;/ul&gt;&lt;/div&gt;&lt;div&gt;&lt;b&gt;NO Transformations&lt;/b&gt;&lt;/div&gt;&lt;div&gt;&lt;b&gt;&lt;br&gt;&lt;/b&gt;&lt;/div&gt;&lt;div&gt;&lt;b&gt;Data Model&lt;/b&gt;:-NONE&lt;/div&gt;&lt;/div&gt;" style="text;html=1;align=center;verticalAlign=middle;whiteSpace=wrap;rounded=0;fontSize=10;" vertex="1" parent="1">
          <mxGeometry x="170" y="360" width="110" height="230" as="geometry" />
        </mxCell>
        <mxCell id="apJjrUFY_y8iBQesmdCD-79" value="&lt;b style=&quot;font-size: 10px;&quot;&gt;Object type&lt;/b&gt;&lt;span style=&quot;font-size: 10px;&quot;&gt;:-Tables&lt;/span&gt;&lt;div style=&quot;font-size: 10px;&quot;&gt;&lt;br&gt;&lt;div style=&quot;text-align: left;&quot;&gt;&lt;span style=&quot;background-color: transparent; color: light-dark(rgb(0, 0, 0), rgb(255, 255, 255));&quot;&gt;&lt;b&gt;LOAD:&lt;/b&gt;&lt;/span&gt;&lt;/div&gt;&lt;div&gt;&lt;ul&gt;&lt;li style=&quot;text-align: left;&quot;&gt;Batch Processing&lt;/li&gt;&lt;li style=&quot;text-align: left;&quot;&gt;Full Load&lt;/li&gt;&lt;li style=&quot;text-align: left;&quot;&gt;Truncate &amp;amp; Insert&lt;/li&gt;&lt;/ul&gt;&lt;div style=&quot;text-align: left;&quot;&gt;&lt;b&gt;Transformations:-&lt;/b&gt;&lt;/div&gt;&lt;div style=&quot;&quot;&gt;&lt;b style=&quot;text-align: left; background-color: transparent; color: light-dark(rgb(0, 0, 0), rgb(255, 255, 255));&quot;&gt;&amp;nbsp; &amp;nbsp;&amp;nbsp;&lt;/b&gt;&lt;span style=&quot;text-align: left; background-color: transparent; color: light-dark(rgb(0, 0, 0), rgb(255, 255, 255));&quot;&gt;Cleaning&lt;/span&gt;&lt;br&gt;&lt;span style=&quot;text-align: left; background-color: transparent; color: light-dark(rgb(0, 0, 0), rgb(255, 255, 255));&quot;&gt;&amp;nbsp; &amp;nbsp; Normalization&lt;/span&gt;&lt;br&gt;&lt;span style=&quot;text-align: left; background-color: transparent; color: light-dark(rgb(0, 0, 0), rgb(255, 255, 255));&quot;&gt;&amp;nbsp; &amp;nbsp; Standardization&lt;/span&gt;&lt;br&gt;&lt;span style=&quot;text-align: left; background-color: transparent; color: light-dark(rgb(0, 0, 0), rgb(255, 255, 255));&quot;&gt;&amp;nbsp; &amp;nbsp; Derived Data&lt;/span&gt;&lt;br&gt;&lt;span style=&quot;text-align: left; background-color: transparent; color: light-dark(rgb(0, 0, 0), rgb(255, 255, 255));&quot;&gt;&amp;nbsp;Data Enrichment&lt;/span&gt;&lt;/div&gt;&lt;div style=&quot;text-align: left;&quot;&gt;&lt;br&gt;&lt;/div&gt;&lt;/div&gt;&lt;div&gt;&lt;b&gt;Data Model&lt;/b&gt;:-NONE&lt;/div&gt;&lt;/div&gt;" style="text;html=1;align=center;verticalAlign=middle;whiteSpace=wrap;rounded=0;" vertex="1" parent="1">
          <mxGeometry x="312.5" y="390" width="110" height="220" as="geometry" />
        </mxCell>
        <mxCell id="apJjrUFY_y8iBQesmdCD-81" value="&lt;b style=&quot;font-size: 10px;&quot;&gt;Object type&lt;/b&gt;&lt;span style=&quot;font-size: 10px;&quot;&gt;:-Views&lt;/span&gt;&lt;div style=&quot;font-size: 10px;&quot;&gt;&lt;br&gt;&lt;div style=&quot;text-align: left;&quot;&gt;&lt;span style=&quot;background-color: transparent; color: light-dark(rgb(0, 0, 0), rgb(255, 255, 255));&quot;&gt;&lt;b&gt;NO LOAD&lt;/b&gt;&lt;/span&gt;&lt;/div&gt;&lt;div style=&quot;text-align: left;&quot;&gt;&lt;span style=&quot;background-color: transparent; color: light-dark(rgb(0, 0, 0), rgb(255, 255, 255));&quot;&gt;&lt;b&gt;&lt;br&gt;&lt;/b&gt;&lt;/span&gt;&lt;/div&gt;&lt;div&gt;&lt;div style=&quot;text-align: left;&quot;&gt;&lt;b&gt;Transformations:-&lt;/b&gt;&lt;/div&gt;&lt;div style=&quot;&quot;&gt;&lt;ul&gt;&lt;li style=&quot;text-align: left;&quot;&gt;&lt;b style=&quot;background-color: transparent; color: light-dark(rgb(0, 0, 0), rgb(255, 255, 255));&quot;&gt;&amp;nbsp; &amp;nbsp;&lt;/b&gt;&lt;span style=&quot;background-color: transparent; color: light-dark(rgb(0, 0, 0), rgb(255, 255, 255));&quot;&gt;Data Integrations&lt;/span&gt;&lt;/li&gt;&lt;li style=&quot;text-align: left;&quot;&gt;&lt;span style=&quot;background-color: transparent; color: light-dark(rgb(0, 0, 0), rgb(255, 255, 255));&quot;&gt;Aggregations&lt;/span&gt;&lt;/li&gt;&lt;li style=&quot;text-align: left;&quot;&gt;&lt;span style=&quot;background-color: transparent; color: light-dark(rgb(0, 0, 0), rgb(255, 255, 255));&quot;&gt;Business Logics&lt;/span&gt;&lt;/li&gt;&lt;/ul&gt;&lt;div style=&quot;text-align: left;&quot;&gt;&lt;b&gt;Data Model:-&lt;/b&gt;&lt;/div&gt;&lt;div style=&quot;text-align: left;&quot;&gt;&lt;ul&gt;&lt;li&gt;Star Schema&lt;/li&gt;&lt;li&gt;Flat Table&lt;/li&gt;&lt;li&gt;Aggregated Table&lt;/li&gt;&lt;/ul&gt;&lt;/div&gt;&lt;/div&gt;&lt;/div&gt;&lt;/div&gt;" style="text;html=1;align=center;verticalAlign=middle;whiteSpace=wrap;rounded=0;" vertex="1" parent="1">
          <mxGeometry x="452.5" y="390" width="110" height="220" as="geometry" />
        </mxCell>
        <mxCell id="apJjrUFY_y8iBQesmdCD-83" value="" style="shape=flexArrow;endArrow=classic;html=1;rounded=0;width=12;endSize=7.93;fillColor=#dae8fc;strokeColor=#6c8ebf;" edge="1" parent="1">
          <mxGeometry width="50" height="50" relative="1" as="geometry">
            <mxPoint x="417.5" y="300" as="sourcePoint" />
            <mxPoint x="467.5" y="300" as="targetPoint" />
            <Array as="points">
              <mxPoint x="447.5" y="300" />
            </Array>
          </mxGeometry>
        </mxCell>
        <mxCell id="apJjrUFY_y8iBQesmdCD-85" value="" style="swimlane;startSize=0;" vertex="1" parent="1">
          <mxGeometry x="137.5" y="140" width="460" height="490" as="geometry" />
        </mxCell>
      </root>
    </mxGraphModel>
  </diagram>
</mxfile>
